<mxfile host="Electron" agent="Mozilla/5.0 (Macintosh; Intel Mac OS X 10_15_7) AppleWebKit/537.36 (KHTML, like Gecko) draw.io/24.7.5 Chrome/126.0.6478.183 Electron/31.3.0 Safari/537.36" version="24.7.5">
  <diagram name="Page-1" id="hZ_6tj4XwJkMZ72sJg3J">
    <mxGraphModel dx="475" dy="379" grid="0" gridSize="10" guides="1" tooltips="1" connect="1" arrows="1" fold="1" page="1" pageScale="1" pageWidth="850" pageHeight="1100" math="0" shadow="0">
      <root>
        <mxCell id="0" />
        <mxCell id="1" parent="0" />
        <mxCell id="NdnfWzS3nerzvwY2r_tA-9" value="" style="group" vertex="1" connectable="0" parent="1">
          <mxGeometry x="200" y="420" width="315" height="218.13" as="geometry" />
        </mxCell>
        <mxCell id="NdnfWzS3nerzvwY2r_tA-10" value="&lt;span style=&quot;color: rgb(255, 181, 112); font-family: &amp;quot;Comic Shanns&amp;quot;; font-size: 36px;&quot;&gt;&amp;nbsp; B&lt;/span&gt;" style="ellipse;whiteSpace=wrap;html=1;fillStyle=hatch;fillColor=none;strokeColor=#d6b656;" vertex="1" parent="NdnfWzS3nerzvwY2r_tA-9">
          <mxGeometry x="115" width="200" height="200" as="geometry" />
        </mxCell>
        <mxCell id="NdnfWzS3nerzvwY2r_tA-11" value="&lt;span style=&quot;color: rgb(255, 181, 112); font-family: &amp;quot;Comic Shanns&amp;quot;; font-size: 36px;&quot;&gt;A&amp;nbsp;&amp;nbsp;&lt;/span&gt;" style="ellipse;whiteSpace=wrap;html=1;fillStyle=hatch;fillColor=none;strokeColor=#d6b656;" vertex="1" parent="NdnfWzS3nerzvwY2r_tA-9">
          <mxGeometry width="200" height="200" as="geometry" />
        </mxCell>
        <mxCell id="NdnfWzS3nerzvwY2r_tA-12" value="" style="whiteSpace=wrap;html=1;shape=mxgraph.basic.pointed_oval;fillColor=#FFF4C3;strokeColor=none;fillStyle=solid;fillOpacity=42;" vertex="1" parent="NdnfWzS3nerzvwY2r_tA-9">
          <mxGeometry x="101" y="18.129999999999995" width="113" height="163.75" as="geometry" />
        </mxCell>
        <mxCell id="NdnfWzS3nerzvwY2r_tA-13" value="" style="group;fillColor=none;fillStyle=solid;" vertex="1" connectable="0" parent="1">
          <mxGeometry x="210" y="120" width="315" height="200" as="geometry" />
        </mxCell>
        <mxCell id="NdnfWzS3nerzvwY2r_tA-14" value="&lt;font color=&quot;#ffb570&quot; style=&quot;font-size: 36px;&quot; face=&quot;Comic Shanns&quot;&gt;&amp;nbsp; B&lt;/font&gt;" style="ellipse;whiteSpace=wrap;html=1;fillStyle=solid;fillColor=#FFF4C3;strokeColor=#d6b656;fillOpacity=42;" vertex="1" parent="NdnfWzS3nerzvwY2r_tA-13">
          <mxGeometry x="115" width="200" height="200" as="geometry" />
        </mxCell>
        <mxCell id="NdnfWzS3nerzvwY2r_tA-15" value="&lt;font color=&quot;#ffb570&quot; style=&quot;font-size: 36px;&quot; face=&quot;Comic Shanns&quot;&gt;A&amp;nbsp;&amp;nbsp;&lt;/font&gt;" style="ellipse;whiteSpace=wrap;html=1;fillStyle=solid;fillColor=#FFF4C3;strokeColor=#d6b656;fillOpacity=42;" vertex="1" parent="NdnfWzS3nerzvwY2r_tA-13">
          <mxGeometry width="200" height="200" as="geometry" />
        </mxCell>
        <mxCell id="NdnfWzS3nerzvwY2r_tA-21" value="" style="group;fillOpacity=42;" vertex="1" connectable="0" parent="1">
          <mxGeometry x="200" y="700" width="420" height="300" as="geometry" />
        </mxCell>
        <mxCell id="NdnfWzS3nerzvwY2r_tA-17" value="&lt;span style=&quot;color: rgb(255, 181, 112); font-family: &amp;quot;Comic Shanns&amp;quot;; font-size: 36px;&quot;&gt;&amp;nbsp; &amp;nbsp; &amp;nbsp; &amp;nbsp; &amp;nbsp; &amp;nbsp; &amp;nbsp; &amp;nbsp; &amp;nbsp;&amp;nbsp;&lt;/span&gt;&lt;span style=&quot;color: rgb(255, 181, 112); font-family: &amp;quot;Comic Shanns&amp;quot;; font-size: 36px; background-color: initial;&quot;&gt;U&lt;/span&gt;" style="rounded=0;whiteSpace=wrap;html=1;fillColor=#FFF4C3;fillOpacity=42;strokeColor=#FFB570;" vertex="1" parent="NdnfWzS3nerzvwY2r_tA-21">
          <mxGeometry width="420" height="300" as="geometry" />
        </mxCell>
        <mxCell id="NdnfWzS3nerzvwY2r_tA-18" value="&lt;span style=&quot;color: rgb(255, 181, 112); font-family: &amp;quot;Comic Shanns&amp;quot;; font-size: 36px;&quot;&gt;A&lt;/span&gt;" style="ellipse;whiteSpace=wrap;html=1;fillStyle=solid;fillColor=default;strokeColor=none;fillOpacity=100;strokeOpacity=100;" vertex="1" parent="NdnfWzS3nerzvwY2r_tA-21">
          <mxGeometry x="25" y="50" width="200" height="200" as="geometry" />
        </mxCell>
        <mxCell id="NdnfWzS3nerzvwY2r_tA-22" value="" style="group;fillOpacity=42;" vertex="1" connectable="0" parent="1">
          <mxGeometry x="200" y="1040" width="420" height="300" as="geometry" />
        </mxCell>
        <mxCell id="NdnfWzS3nerzvwY2r_tA-19" value="&lt;span style=&quot;color: rgb(255, 181, 112); font-family: &amp;quot;Comic Shanns&amp;quot;; font-size: 36px;&quot;&gt;&amp;nbsp; &amp;nbsp; &amp;nbsp; &amp;nbsp; &amp;nbsp; &amp;nbsp; &amp;nbsp; &amp;nbsp; &amp;nbsp;&amp;nbsp;&lt;/span&gt;&lt;span style=&quot;color: rgb(255, 181, 112); font-family: &amp;quot;Comic Shanns&amp;quot;; font-size: 36px; background-color: initial;&quot;&gt;U&lt;/span&gt;" style="rounded=0;whiteSpace=wrap;html=1;fillColor=#FFF4C3;fillOpacity=42;strokeColor=#FFB570;" vertex="1" parent="NdnfWzS3nerzvwY2r_tA-22">
          <mxGeometry width="420" height="300" as="geometry" />
        </mxCell>
        <mxCell id="NdnfWzS3nerzvwY2r_tA-20" value="&lt;span style=&quot;color: rgb(255, 181, 112); font-family: &amp;quot;Comic Shanns&amp;quot;; font-size: 36px;&quot;&gt;A&lt;/span&gt;" style="ellipse;whiteSpace=wrap;html=1;fillStyle=solid;fillColor=#1F2129;strokeColor=none;fillOpacity=100;strokeOpacity=100;" vertex="1" parent="NdnfWzS3nerzvwY2r_tA-22">
          <mxGeometry x="25" y="50" width="200" height="200" as="geometry" />
        </mxCell>
        <mxCell id="NdnfWzS3nerzvwY2r_tA-37" value="" style="group" vertex="1" connectable="0" parent="1">
          <mxGeometry x="232" y="1792" width="315" height="200" as="geometry" />
        </mxCell>
        <mxCell id="NdnfWzS3nerzvwY2r_tA-33" value="&lt;span style=&quot;color: rgb(255, 181, 112); font-family: &amp;quot;Comic Shanns&amp;quot;; font-size: 36px;&quot;&gt;A&amp;nbsp;&amp;nbsp;&lt;/span&gt;" style="ellipse;whiteSpace=wrap;html=1;fillStyle=solid;fillColor=#FFF4C3;strokeColor=#d6b656;fillOpacity=42;" vertex="1" parent="NdnfWzS3nerzvwY2r_tA-37">
          <mxGeometry width="200" height="200" as="geometry" />
        </mxCell>
        <mxCell id="NdnfWzS3nerzvwY2r_tA-34" value="&lt;span style=&quot;color: rgb(255, 181, 112); font-family: &amp;quot;Comic Shanns&amp;quot;; font-size: 36px;&quot;&gt;&amp;nbsp; B&lt;/span&gt;" style="ellipse;whiteSpace=wrap;html=1;fillStyle=solid;fillColor=#1F2129;strokeColor=#d6b656;" vertex="1" parent="NdnfWzS3nerzvwY2r_tA-37">
          <mxGeometry x="115" width="200" height="200" as="geometry" />
        </mxCell>
        <mxCell id="NdnfWzS3nerzvwY2r_tA-35" value="" style="whiteSpace=wrap;html=1;shape=mxgraph.basic.pointed_oval;fillColor=#1F2129;strokeColor=#D6B656;fillStyle=solid;fillOpacity=42;" vertex="1" parent="NdnfWzS3nerzvwY2r_tA-37">
          <mxGeometry x="101" y="18.11999999999989" width="113" height="163.75" as="geometry" />
        </mxCell>
        <mxCell id="NdnfWzS3nerzvwY2r_tA-36" value="" style="group" vertex="1" connectable="0" parent="1">
          <mxGeometry x="230" y="1470" width="315" height="200" as="geometry" />
        </mxCell>
        <mxCell id="NdnfWzS3nerzvwY2r_tA-28" value="&lt;span style=&quot;color: rgb(255, 181, 112); font-family: &amp;quot;Comic Shanns&amp;quot;; font-size: 36px;&quot;&gt;A&amp;nbsp;&amp;nbsp;&lt;/span&gt;" style="ellipse;whiteSpace=wrap;html=1;fillStyle=solid;fillColor=#FFF4C3;strokeColor=#d6b656;fillOpacity=42;" vertex="1" parent="NdnfWzS3nerzvwY2r_tA-36">
          <mxGeometry width="200" height="200" as="geometry" />
        </mxCell>
        <mxCell id="NdnfWzS3nerzvwY2r_tA-27" value="&lt;span style=&quot;color: rgb(255, 181, 112); font-family: &amp;quot;Comic Shanns&amp;quot;; font-size: 36px;&quot;&gt;&amp;nbsp; B&lt;/span&gt;" style="ellipse;whiteSpace=wrap;html=1;fillStyle=solid;fillColor=default;strokeColor=#d6b656;" vertex="1" parent="NdnfWzS3nerzvwY2r_tA-36">
          <mxGeometry x="115" width="200" height="200" as="geometry" />
        </mxCell>
        <mxCell id="NdnfWzS3nerzvwY2r_tA-31" value="" style="whiteSpace=wrap;html=1;shape=mxgraph.basic.pointed_oval;fillColor=#FFFFFF;strokeColor=#D6B656;fillStyle=solid;fillOpacity=42;" vertex="1" parent="NdnfWzS3nerzvwY2r_tA-36">
          <mxGeometry x="101" y="18.11999999999989" width="113" height="163.75" as="geometry" />
        </mxCell>
        <mxCell id="NdnfWzS3nerzvwY2r_tA-92" value="" style="group" vertex="1" connectable="0" parent="1">
          <mxGeometry x="160" y="2090" width="290" height="50.559999999999945" as="geometry" />
        </mxCell>
        <mxCell id="NdnfWzS3nerzvwY2r_tA-55" value="" style="group" vertex="1" connectable="0" parent="NdnfWzS3nerzvwY2r_tA-92">
          <mxGeometry x="80" width="170" height="50.559999999999945" as="geometry" />
        </mxCell>
        <mxCell id="NdnfWzS3nerzvwY2r_tA-84" value="" style="group" vertex="1" connectable="0" parent="NdnfWzS3nerzvwY2r_tA-55">
          <mxGeometry width="50" height="50.559999999999945" as="geometry" />
        </mxCell>
        <mxCell id="NdnfWzS3nerzvwY2r_tA-38" value="" style="group" vertex="1" connectable="0" parent="NdnfWzS3nerzvwY2r_tA-84">
          <mxGeometry width="50" height="30" as="geometry" />
        </mxCell>
        <mxCell id="NdnfWzS3nerzvwY2r_tA-39" value="" style="ellipse;whiteSpace=wrap;html=1;fillStyle=solid;fillColor=#FFF4C3;strokeColor=#d6b656;fillOpacity=42;" vertex="1" parent="NdnfWzS3nerzvwY2r_tA-38">
          <mxGeometry width="31.746031746031743" height="30" as="geometry" />
        </mxCell>
        <mxCell id="NdnfWzS3nerzvwY2r_tA-40" value="" style="ellipse;whiteSpace=wrap;html=1;fillStyle=solid;fillColor=default;strokeColor=#d6b656;fillOpacity=100;" vertex="1" parent="NdnfWzS3nerzvwY2r_tA-38">
          <mxGeometry x="18.253968253968253" width="31.746031746031743" height="30" as="geometry" />
        </mxCell>
        <mxCell id="NdnfWzS3nerzvwY2r_tA-41" value="" style="whiteSpace=wrap;html=1;shape=mxgraph.basic.pointed_oval;fillColor=#FFFFFF;strokeColor=#D6B656;fillStyle=solid;fillOpacity=100;" vertex="1" parent="NdnfWzS3nerzvwY2r_tA-38">
          <mxGeometry x="16.03174603174603" y="2.7179999999999835" width="17.936507936507937" height="24.5625" as="geometry" />
        </mxCell>
        <mxCell id="NdnfWzS3nerzvwY2r_tA-77" value="&lt;font color=&quot;#ffd966&quot; face=&quot;Comic Shanns&quot;&gt;A -&amp;nbsp;B&lt;/font&gt;" style="text;html=1;align=center;verticalAlign=middle;whiteSpace=wrap;rounded=0;" vertex="1" parent="NdnfWzS3nerzvwY2r_tA-84">
          <mxGeometry x="3.5" y="30" width="43" height="20" as="geometry" />
        </mxCell>
        <mxCell id="NdnfWzS3nerzvwY2r_tA-85" value="&lt;font face=&quot;Comic Shanns&quot; color=&quot;#ffd966&quot;&gt;+&lt;/font&gt;" style="text;html=1;align=center;verticalAlign=middle;whiteSpace=wrap;rounded=0;" vertex="1" parent="NdnfWzS3nerzvwY2r_tA-55">
          <mxGeometry x="50" y="5" width="30" height="20" as="geometry" />
        </mxCell>
        <mxCell id="NdnfWzS3nerzvwY2r_tA-86" value="&lt;font face=&quot;Comic Shanns&quot; color=&quot;#ffd966&quot;&gt;+&lt;/font&gt;" style="text;html=1;align=center;verticalAlign=middle;whiteSpace=wrap;rounded=0;" vertex="1" parent="NdnfWzS3nerzvwY2r_tA-55">
          <mxGeometry x="130" y="5" width="30" height="20" as="geometry" />
        </mxCell>
        <mxCell id="NdnfWzS3nerzvwY2r_tA-87" value="" style="group;rotation=-180;" vertex="1" connectable="0" parent="NdnfWzS3nerzvwY2r_tA-55">
          <mxGeometry x="80" width="50" height="30" as="geometry" />
        </mxCell>
        <mxCell id="NdnfWzS3nerzvwY2r_tA-88" value="" style="ellipse;whiteSpace=wrap;html=1;fillStyle=solid;fillColor=#FFF4C3;strokeColor=#d6b656;fillOpacity=42;rotation=-180;" vertex="1" parent="NdnfWzS3nerzvwY2r_tA-87">
          <mxGeometry x="18" width="31.746031746031743" height="30" as="geometry" />
        </mxCell>
        <mxCell id="NdnfWzS3nerzvwY2r_tA-89" value="" style="ellipse;whiteSpace=wrap;html=1;fillStyle=solid;fillColor=default;strokeColor=#d6b656;rotation=-180;fillOpacity=100;" vertex="1" parent="NdnfWzS3nerzvwY2r_tA-87">
          <mxGeometry width="31.746031746031743" height="30" as="geometry" />
        </mxCell>
        <mxCell id="NdnfWzS3nerzvwY2r_tA-90" value="" style="whiteSpace=wrap;html=1;shape=mxgraph.basic.pointed_oval;fillColor=#FFFFFF;strokeColor=#D6B656;fillStyle=solid;fillOpacity=100;rotation=-180;" vertex="1" parent="NdnfWzS3nerzvwY2r_tA-87">
          <mxGeometry x="16" y="3" width="17.936507936507937" height="24.5625" as="geometry" />
        </mxCell>
        <mxCell id="NdnfWzS3nerzvwY2r_tA-91" value="&lt;font color=&quot;#ffd966&quot; face=&quot;Comic Shanns&quot;&gt;B - A&lt;/font&gt;" style="text;html=1;align=center;verticalAlign=middle;whiteSpace=wrap;rounded=0;" vertex="1" parent="NdnfWzS3nerzvwY2r_tA-55">
          <mxGeometry x="83.5" y="30" width="43" height="20" as="geometry" />
        </mxCell>
        <mxCell id="NdnfWzS3nerzvwY2r_tA-72" value="" style="group" vertex="1" connectable="0" parent="NdnfWzS3nerzvwY2r_tA-92">
          <mxGeometry width="50" height="30" as="geometry" />
        </mxCell>
        <mxCell id="NdnfWzS3nerzvwY2r_tA-73" value="" style="ellipse;whiteSpace=wrap;html=1;fillStyle=solid;fillColor=#FFF4C3;strokeColor=#d6b656;fillOpacity=42;" vertex="1" parent="NdnfWzS3nerzvwY2r_tA-72">
          <mxGeometry width="31.746031746031743" height="30" as="geometry" />
        </mxCell>
        <mxCell id="NdnfWzS3nerzvwY2r_tA-74" value="" style="ellipse;whiteSpace=wrap;html=1;fillStyle=solid;fillColor=#FFF4C3;strokeColor=#d6b656;fillOpacity=42;" vertex="1" parent="NdnfWzS3nerzvwY2r_tA-72">
          <mxGeometry x="18.253968253968253" width="31.746031746031743" height="30" as="geometry" />
        </mxCell>
        <mxCell id="NdnfWzS3nerzvwY2r_tA-75" value="" style="whiteSpace=wrap;html=1;shape=mxgraph.basic.pointed_oval;fillColor=none;strokeColor=#D6B656;fillStyle=solid;fillOpacity=0;" vertex="1" parent="NdnfWzS3nerzvwY2r_tA-72">
          <mxGeometry x="16.03174603174603" y="2.7179999999999835" width="17.936507936507937" height="24.5625" as="geometry" />
        </mxCell>
        <mxCell id="NdnfWzS3nerzvwY2r_tA-76" value="&lt;font color=&quot;#ffd966&quot; face=&quot;Comic Shanns&quot;&gt;A ∪&amp;nbsp;B&lt;/font&gt;" style="text;html=1;align=center;verticalAlign=middle;whiteSpace=wrap;rounded=0;" vertex="1" parent="NdnfWzS3nerzvwY2r_tA-92">
          <mxGeometry x="3.5" y="30" width="43" height="20" as="geometry" />
        </mxCell>
        <mxCell id="NdnfWzS3nerzvwY2r_tA-81" value="&lt;font face=&quot;Comic Shanns&quot; color=&quot;#ffd966&quot;&gt;=&lt;/font&gt;" style="text;html=1;align=center;verticalAlign=middle;whiteSpace=wrap;rounded=0;" vertex="1" parent="NdnfWzS3nerzvwY2r_tA-92">
          <mxGeometry x="50" y="5" width="30" height="20" as="geometry" />
        </mxCell>
        <mxCell id="NdnfWzS3nerzvwY2r_tA-82" value="" style="group" vertex="1" connectable="0" parent="NdnfWzS3nerzvwY2r_tA-92">
          <mxGeometry x="240" width="50" height="50.559999999999945" as="geometry" />
        </mxCell>
        <mxCell id="NdnfWzS3nerzvwY2r_tA-48" value="" style="group" vertex="1" connectable="0" parent="NdnfWzS3nerzvwY2r_tA-82">
          <mxGeometry width="50" height="30" as="geometry" />
        </mxCell>
        <mxCell id="NdnfWzS3nerzvwY2r_tA-49" value="" style="ellipse;whiteSpace=wrap;html=1;fillStyle=solid;fillColor=none;strokeColor=#d6b656;fillOpacity=42;" vertex="1" parent="NdnfWzS3nerzvwY2r_tA-48">
          <mxGeometry width="31.746031746031743" height="30" as="geometry" />
        </mxCell>
        <mxCell id="NdnfWzS3nerzvwY2r_tA-50" value="" style="ellipse;whiteSpace=wrap;html=1;fillStyle=solid;fillColor=none;strokeColor=#d6b656;" vertex="1" parent="NdnfWzS3nerzvwY2r_tA-48">
          <mxGeometry x="18.253968253968253" width="31.746031746031743" height="30" as="geometry" />
        </mxCell>
        <mxCell id="NdnfWzS3nerzvwY2r_tA-51" value="" style="whiteSpace=wrap;html=1;shape=mxgraph.basic.pointed_oval;fillColor=#FFF4C3;strokeColor=#D6B656;fillStyle=solid;fillOpacity=42;" vertex="1" parent="NdnfWzS3nerzvwY2r_tA-48">
          <mxGeometry x="16.03174603174603" y="2.7179999999999835" width="17.936507936507937" height="24.5625" as="geometry" />
        </mxCell>
        <mxCell id="NdnfWzS3nerzvwY2r_tA-80" value="&lt;font color=&quot;#ffd966&quot; face=&quot;Comic Shanns&quot;&gt;A ∩&amp;nbsp;B&lt;/font&gt;" style="text;html=1;align=center;verticalAlign=middle;whiteSpace=wrap;rounded=0;" vertex="1" parent="NdnfWzS3nerzvwY2r_tA-82">
          <mxGeometry x="3.5" y="30.559999999999945" width="43" height="20" as="geometry" />
        </mxCell>
        <mxCell id="NdnfWzS3nerzvwY2r_tA-147" value="" style="group" vertex="1" connectable="0" parent="1">
          <mxGeometry x="160" y="2175" width="290" height="50.559999999999945" as="geometry" />
        </mxCell>
        <mxCell id="NdnfWzS3nerzvwY2r_tA-148" value="" style="group" vertex="1" connectable="0" parent="NdnfWzS3nerzvwY2r_tA-147">
          <mxGeometry x="80" width="170" height="50.559999999999945" as="geometry" />
        </mxCell>
        <mxCell id="NdnfWzS3nerzvwY2r_tA-149" value="" style="group" vertex="1" connectable="0" parent="NdnfWzS3nerzvwY2r_tA-148">
          <mxGeometry width="50" height="50.559999999999945" as="geometry" />
        </mxCell>
        <mxCell id="NdnfWzS3nerzvwY2r_tA-150" value="" style="group" vertex="1" connectable="0" parent="NdnfWzS3nerzvwY2r_tA-149">
          <mxGeometry width="50" height="30" as="geometry" />
        </mxCell>
        <mxCell id="NdnfWzS3nerzvwY2r_tA-151" value="" style="ellipse;whiteSpace=wrap;html=1;fillStyle=solid;fillColor=#FFF4C3;strokeColor=#d6b656;fillOpacity=42;" vertex="1" parent="NdnfWzS3nerzvwY2r_tA-150">
          <mxGeometry width="31.746031746031743" height="30" as="geometry" />
        </mxCell>
        <mxCell id="NdnfWzS3nerzvwY2r_tA-152" value="" style="ellipse;whiteSpace=wrap;html=1;fillStyle=solid;fillColor=#1F2129;strokeColor=#d6b656;fillOpacity=100;" vertex="1" parent="NdnfWzS3nerzvwY2r_tA-150">
          <mxGeometry x="18.253968253968253" width="31.746031746031743" height="30" as="geometry" />
        </mxCell>
        <mxCell id="NdnfWzS3nerzvwY2r_tA-153" value="" style="whiteSpace=wrap;html=1;shape=mxgraph.basic.pointed_oval;fillColor=#1F2129;strokeColor=#D6B656;fillStyle=solid;fillOpacity=100;" vertex="1" parent="NdnfWzS3nerzvwY2r_tA-150">
          <mxGeometry x="16.03174603174603" y="2.7179999999999835" width="17.936507936507937" height="24.5625" as="geometry" />
        </mxCell>
        <mxCell id="NdnfWzS3nerzvwY2r_tA-154" value="&lt;font color=&quot;#ffd966&quot; face=&quot;Comic Shanns&quot;&gt;A -&amp;nbsp;B&lt;/font&gt;" style="text;html=1;align=center;verticalAlign=middle;whiteSpace=wrap;rounded=0;" vertex="1" parent="NdnfWzS3nerzvwY2r_tA-149">
          <mxGeometry x="3.5" y="30" width="43" height="20" as="geometry" />
        </mxCell>
        <mxCell id="NdnfWzS3nerzvwY2r_tA-155" value="&lt;font face=&quot;Comic Shanns&quot; color=&quot;#ffd966&quot;&gt;+&lt;/font&gt;" style="text;html=1;align=center;verticalAlign=middle;whiteSpace=wrap;rounded=0;" vertex="1" parent="NdnfWzS3nerzvwY2r_tA-148">
          <mxGeometry x="50" y="5" width="30" height="20" as="geometry" />
        </mxCell>
        <mxCell id="NdnfWzS3nerzvwY2r_tA-156" value="&lt;font face=&quot;Comic Shanns&quot; color=&quot;#ffd966&quot;&gt;+&lt;/font&gt;" style="text;html=1;align=center;verticalAlign=middle;whiteSpace=wrap;rounded=0;" vertex="1" parent="NdnfWzS3nerzvwY2r_tA-148">
          <mxGeometry x="130" y="5" width="30" height="20" as="geometry" />
        </mxCell>
        <mxCell id="NdnfWzS3nerzvwY2r_tA-157" value="" style="group;rotation=-180;" vertex="1" connectable="0" parent="NdnfWzS3nerzvwY2r_tA-148">
          <mxGeometry x="80" width="50" height="30" as="geometry" />
        </mxCell>
        <mxCell id="NdnfWzS3nerzvwY2r_tA-158" value="" style="ellipse;whiteSpace=wrap;html=1;fillStyle=solid;fillColor=#FFF4C3;strokeColor=#d6b656;fillOpacity=42;rotation=-180;" vertex="1" parent="NdnfWzS3nerzvwY2r_tA-157">
          <mxGeometry x="18" width="31.746031746031743" height="30" as="geometry" />
        </mxCell>
        <mxCell id="NdnfWzS3nerzvwY2r_tA-159" value="" style="ellipse;whiteSpace=wrap;html=1;fillStyle=solid;fillColor=#1F2129;strokeColor=#d6b656;rotation=-180;fillOpacity=100;" vertex="1" parent="NdnfWzS3nerzvwY2r_tA-157">
          <mxGeometry width="31.746031746031743" height="30" as="geometry" />
        </mxCell>
        <mxCell id="NdnfWzS3nerzvwY2r_tA-160" value="" style="whiteSpace=wrap;html=1;shape=mxgraph.basic.pointed_oval;fillColor=#1F2129;strokeColor=#D6B656;fillStyle=solid;fillOpacity=100;rotation=-180;" vertex="1" parent="NdnfWzS3nerzvwY2r_tA-157">
          <mxGeometry x="16" y="3" width="17.936507936507937" height="24.5625" as="geometry" />
        </mxCell>
        <mxCell id="NdnfWzS3nerzvwY2r_tA-161" value="&lt;font color=&quot;#ffd966&quot; face=&quot;Comic Shanns&quot;&gt;B - A&lt;/font&gt;" style="text;html=1;align=center;verticalAlign=middle;whiteSpace=wrap;rounded=0;" vertex="1" parent="NdnfWzS3nerzvwY2r_tA-148">
          <mxGeometry x="83.5" y="30" width="43" height="20" as="geometry" />
        </mxCell>
        <mxCell id="NdnfWzS3nerzvwY2r_tA-162" value="" style="group" vertex="1" connectable="0" parent="NdnfWzS3nerzvwY2r_tA-147">
          <mxGeometry width="50" height="30" as="geometry" />
        </mxCell>
        <mxCell id="NdnfWzS3nerzvwY2r_tA-163" value="" style="ellipse;whiteSpace=wrap;html=1;fillStyle=solid;fillColor=#FFF4C3;strokeColor=#d6b656;fillOpacity=42;" vertex="1" parent="NdnfWzS3nerzvwY2r_tA-162">
          <mxGeometry width="31.746031746031743" height="30" as="geometry" />
        </mxCell>
        <mxCell id="NdnfWzS3nerzvwY2r_tA-164" value="" style="ellipse;whiteSpace=wrap;html=1;fillStyle=solid;fillColor=#FFF4C3;strokeColor=#d6b656;fillOpacity=42;" vertex="1" parent="NdnfWzS3nerzvwY2r_tA-162">
          <mxGeometry x="18.253968253968253" width="31.746031746031743" height="30" as="geometry" />
        </mxCell>
        <mxCell id="NdnfWzS3nerzvwY2r_tA-165" value="" style="whiteSpace=wrap;html=1;shape=mxgraph.basic.pointed_oval;fillColor=none;strokeColor=#D6B656;fillStyle=solid;fillOpacity=0;" vertex="1" parent="NdnfWzS3nerzvwY2r_tA-162">
          <mxGeometry x="16.03174603174603" y="2.7179999999999835" width="17.936507936507937" height="24.5625" as="geometry" />
        </mxCell>
        <mxCell id="NdnfWzS3nerzvwY2r_tA-166" value="&lt;font color=&quot;#ffd966&quot; face=&quot;Comic Shanns&quot;&gt;A ∪&amp;nbsp;B&lt;/font&gt;" style="text;html=1;align=center;verticalAlign=middle;whiteSpace=wrap;rounded=0;" vertex="1" parent="NdnfWzS3nerzvwY2r_tA-147">
          <mxGeometry x="3.5" y="30" width="43" height="20" as="geometry" />
        </mxCell>
        <mxCell id="NdnfWzS3nerzvwY2r_tA-167" value="&lt;font face=&quot;Comic Shanns&quot; color=&quot;#ffd966&quot;&gt;=&lt;/font&gt;" style="text;html=1;align=center;verticalAlign=middle;whiteSpace=wrap;rounded=0;" vertex="1" parent="NdnfWzS3nerzvwY2r_tA-147">
          <mxGeometry x="50" y="5" width="30" height="20" as="geometry" />
        </mxCell>
        <mxCell id="NdnfWzS3nerzvwY2r_tA-168" value="" style="group" vertex="1" connectable="0" parent="NdnfWzS3nerzvwY2r_tA-147">
          <mxGeometry x="240" width="50" height="50.559999999999945" as="geometry" />
        </mxCell>
        <mxCell id="NdnfWzS3nerzvwY2r_tA-169" value="" style="group" vertex="1" connectable="0" parent="NdnfWzS3nerzvwY2r_tA-168">
          <mxGeometry width="50" height="30" as="geometry" />
        </mxCell>
        <mxCell id="NdnfWzS3nerzvwY2r_tA-170" value="" style="ellipse;whiteSpace=wrap;html=1;fillStyle=solid;fillColor=none;strokeColor=#d6b656;fillOpacity=42;" vertex="1" parent="NdnfWzS3nerzvwY2r_tA-169">
          <mxGeometry width="31.746031746031743" height="30" as="geometry" />
        </mxCell>
        <mxCell id="NdnfWzS3nerzvwY2r_tA-171" value="" style="ellipse;whiteSpace=wrap;html=1;fillStyle=solid;fillColor=none;strokeColor=#d6b656;" vertex="1" parent="NdnfWzS3nerzvwY2r_tA-169">
          <mxGeometry x="18.253968253968253" width="31.746031746031743" height="30" as="geometry" />
        </mxCell>
        <mxCell id="NdnfWzS3nerzvwY2r_tA-172" value="" style="whiteSpace=wrap;html=1;shape=mxgraph.basic.pointed_oval;fillColor=#FFF4C3;strokeColor=#D6B656;fillStyle=solid;fillOpacity=42;" vertex="1" parent="NdnfWzS3nerzvwY2r_tA-169">
          <mxGeometry x="16.03174603174603" y="2.7179999999999835" width="17.936507936507937" height="24.5625" as="geometry" />
        </mxCell>
        <mxCell id="NdnfWzS3nerzvwY2r_tA-173" value="&lt;font color=&quot;#ffd966&quot; face=&quot;Comic Shanns&quot;&gt;A ∩&amp;nbsp;B&lt;/font&gt;" style="text;html=1;align=center;verticalAlign=middle;whiteSpace=wrap;rounded=0;" vertex="1" parent="NdnfWzS3nerzvwY2r_tA-168">
          <mxGeometry x="3.5" y="30.559999999999945" width="43" height="20" as="geometry" />
        </mxCell>
      </root>
    </mxGraphModel>
  </diagram>
</mxfile>
